<svg t="1770691175135" class="icon" viewBox="0 0 1908 1024" version="1.1" xmlns="http://www.w3.org/2000/svg"
  p-id="14992">
  <path
    d="M400.29 926.255C287.03 899.103 173.77 810.667 125.674 711.37 10.86 473.988 111.709 201.697 349.09 110.158 517.43 45.77 685.77 76.8 840.92 202.473c31.806 24.824 68.267 58.182 81.455 72.92s25.6 27.152 28.703 27.152c2.327 0 33.357-27.151 69.042-60.509 110.934-105.503 211.782-155.151 329.697-162.133 260.655-15.515 465.455 172.218 465.455 427.442 0 128-38.012 223.419-123.346 307.2-83.782 83.007-187.733 124.122-318.06 124.122-142.74 0-268.412-57.406-387.103-178.425l-41.116-41.89-44.218 43.442C767.224 891.345 661.721 939.442 516.655 937.89c-38.788 0-90.764-5.43-116.364-11.636z m220.316-272.291c40.34-20.17 155.152-121.019 155.152-135.758 0-17.842-121.019-131.879-159.806-150.497-83.782-41.115-183.08-19.394-231.952 50.424-20.945 30.255-23.273 38.788-23.273 93.867s2.328 63.612 23.273 93.867c49.648 70.594 150.497 90.763 236.606 48.097z m820.752 9.309C1501.867 637.673 1536 584.145 1536 512c0-100.848-66.715-164.46-172.218-163.685-65.164 0-106.279 22.497-184.63 100.073l-65.94 65.164 65.94 63.612c36.46 34.909 81.454 71.37 100.848 80.678 41.89 20.946 117.915 23.273 161.358 5.43z"
    fill="#484848" p-id="14993"></path>
  <path
    d="M1078.303 839.37c-27.927-20.946-69.042-56.63-91.54-79.128l-40.339-41.115-17.842 14.74c-10.085 7.757-6.982 4.654 6.206-8.534 13.188-12.412 58.182-64.388 100.073-114.036 41.89-50.424 77.575-91.54 79.903-91.54s32.581 27.152 67.49 60.51c34.91 32.581 76.8 66.715 93.867 75.248l34.134 17.067c4.654 2.327-166.013 203.248-173.77 203.248-3.879 0.776-30.255-16.29-58.182-36.46z m-885.14-30.255l-26.375-29.479 29.479 26.376c26.375 25.6 32.581 31.806 26.375 31.806-1.551 0-14.739-13.188-29.478-28.703zM506.57 677.236c11.636-1.551 30.254-1.551 42.666 0 11.637 1.552 1.552 3.103-21.72 3.103s-33.358-1.551-20.946-3.103z m845.575 0c11.637-1.551 28.703-1.551 38.788 0 9.31 1.552 0 3.103-21.72 3.103-20.946 0-29.48-1.551-17.068-3.103z m-646.206-82.23c0-1.551 11.637-12.412 25.6-25.6l24.825-22.497-22.497 25.6c-21.722 23.273-27.928 28.703-27.928 22.497zM1538.327 512c0-19.394 1.552-27.152 3.103-17.067 1.552 9.31 1.552 24.825 0 34.91-1.551 9.309-3.103 1.55-3.103-17.843z m-819.975-59.733c-35.685-38.012-76.025-71.37-98.522-83.006-20.945-10.085-35.685-20.17-31.806-21.722 7.758-3.103 161.358-186.181 165.237-197.818 4.654-13.188 74.472 36.46 143.515 101.624l58.957 55.855-88.436 104.727-87.66 103.952-61.285-63.612z m460.8-13.964c14.739-14.74 27.927-27.151 30.254-27.151s-7.758 12.412-22.497 27.151-27.927 27.152-30.254 27.152 7.757-12.413 22.497-27.152z"
    fill="#01D1C1" p-id="14994"></path>
  <path
    d="M193.164 809.115l-26.376-29.479 29.479 26.376c26.375 25.6 32.581 31.806 26.375 31.806-1.551 0-14.739-13.188-29.478-28.703zM506.57 677.236c11.636-1.551 30.254-1.551 42.666 0 11.637 1.552 1.552 3.103-21.72 3.103s-33.358-1.551-20.946-3.103z m845.575 0c11.637-1.551 28.703-1.551 38.788 0 9.31 1.552 0 3.103-21.72 3.103-20.946 0-29.48-1.551-17.068-3.103z m-646.206-82.23c0-1.551 11.637-12.412 25.6-25.6l24.825-22.497-22.497 25.6c-21.722 23.273-27.928 28.703-27.928 22.497zM1538.327 512c0-19.394 1.552-27.152 3.103-17.067 1.552 9.31 1.552 24.825 0 34.91-1.551 9.309-3.103 1.55-3.103-17.843z m-359.175-73.697c14.739-14.74 27.927-27.151 30.254-27.151s-7.758 12.412-22.497 27.151-27.927 27.152-30.254 27.152 7.757-12.413 22.497-27.152z"
    fill="#A1A1A1" p-id="14995"></path>
</svg>